<svg width="34" height="32" viewBox="0 0 34 32" fill="none" xmlns="http://www.w3.org/2000/svg">
<path d="M23.483 26.4845L2.0704 11.714C-0.0995048 10.2173 0.638121 7.10088 3.34394 6.36802L26.1017 0.191307C26.5838 0.0173566 27.1004 -0.0391112 27.6087 0.0265948C28.1169 0.0923008 28.6022 0.278283 29.0243 0.569108C29.4462 0.859932 29.7928 1.24721 30.0351 1.6988C30.2774 2.15038 30.4086 2.65326 30.4177 3.16568L29.0689 24.1116C28.909 26.5978 25.6529 27.9812 23.483 26.4845Z" fill="white"/>
<path d="M16.6916 30.1304L4.07676 5.46053C3.78839 4.89617 3.6615 4.26311 3.71007 3.6312C3.75864 2.99929 3.98078 2.39306 4.352 1.87938C4.72322 1.36571 5.22909 0.964526 5.81383 0.720083C6.39857 0.47564 7.03946 0.397438 7.66582 0.494105L31.0443 4.10225C31.5825 4.18534 32.0933 4.39499 32.5348 4.71397C32.9762 5.03296 33.3356 5.45217 33.5835 5.93712C33.8313 6.42208 33.9605 6.95894 33.9604 7.50356C33.9603 8.04818 33.8309 8.58501 33.583 9.06988L22.8134 30.1316C22.5242 30.6943 22.0855 31.1665 21.5454 31.496C21.0053 31.8257 20.3849 32 19.7522 31.9998C19.1194 31.9997 18.499 31.8252 17.9591 31.4954C17.4191 31.1655 16.9806 30.6932 16.6916 30.1304Z" fill="white"/>
<path d="M24.3811 8.72693L19.8923 8L14.3811 9.57011L16.5809 14.0856L21.7322 17.8153C21.8458 17.8966 21.9708 17.959 22.1027 18L24.0593 13.9852L24.3811 8.72693Z" fill="#0F172A"/>
</svg>
  